<svg width="1291" height="431" viewBox="0 0 1291 431" fill="none" xmlns="http://www.w3.org/2000/svg">
<path d="M153.467 158.934L126.4 214L160.267 247.067C178.8 265.2 198.934 284.534 204.934 290.134L215.867 300.134L269.867 271.734C310.134 250.534 323.867 242.667 324 240.934C324 238.8 320 215.334 314 182C312.934 176.134 310.134 160.134 307.867 146.4L303.6 121.6L293.467 120C272.4 116.8 229.6 110.534 220.667 109.334C215.6 108.667 205.334 107.2 198 106C190.667 104.934 183.734 104 182.667 104C181.2 104 171.734 121.867 153.467 158.934ZM264.534 134C276.934 135.867 287.334 137.6 287.6 137.867C288.267 138.534 297.334 189.067 297.334 192.134C297.334 193.734 290.134 198.267 273.067 207.2C259.6 214.267 247.867 220.534 246.8 221.2C245.334 222.134 246.667 225.6 253.467 238.534C258.667 248.534 261.334 255.067 260.534 255.867C258.4 258 220.934 277.334 219.067 277.334C218.134 277.334 201.734 262.267 182.667 243.867L148.134 210.4L156.267 194.267C160.667 185.334 170 166.4 176.934 152.134C183.734 137.867 190 125.6 190.667 124.667C191.6 123.6 198.267 124.134 216.934 126.934C230.667 128.934 252.134 132.134 264.534 134Z" fill="#FFFDFD"/>
<path d="M210.934 158.801C215.067 166.401 222.134 179.734 226.667 188.401C231.334 197.201 235.6 203.867 236.534 203.601C244.934 200.134 275.334 182.534 275.067 181.067C274.8 180.134 273.867 174.267 272.8 168.134C271.734 162.001 270.267 156.534 269.734 156.001C269.2 155.334 255.467 153.067 239.334 150.667C223.2 148.401 208.534 146.134 206.8 145.734C203.734 144.934 204 145.734 210.934 158.801Z" fill="#FFFDFD"/>
<path d="M182.667 186.667L173.2 205.733L178.267 210.933C181.067 213.867 192.134 224.667 202.934 234.933L222.534 253.467L228.667 250L234.8 246.4L227.867 233.467C224 226.4 218.667 216.4 216 211.333C199.467 180.4 193.067 168.667 192.667 168.133C192.4 167.867 187.867 176.267 182.667 186.667Z" fill="#FFFDFD"/>
<path d="M582.134 143.467C556.801 151.334 541.734 178.134 548.534 203.734C552.534 218.534 564.401 232.001 578.401 237.467C589.067 241.601 604.401 241.601 615.334 237.334C626.401 233.067 638.401 221.067 642.667 210.001C647.201 198.267 646.934 181.867 642.134 171.067C631.734 148.401 605.601 136.267 582.134 143.467ZM606.267 160.667C634.667 169.067 634.934 212.667 606.534 222.001C578.801 231.201 554.801 201.334 568.534 174.801C571.467 169.334 577.734 164.134 584.801 161.334C592.801 158.267 597.467 158.134 606.267 160.667Z" fill="#FFFDFD"/>
<path d="M756.668 143.201C747.334 146.134 740.801 150.268 734.401 157.068C726.934 165.068 723.468 171.601 721.334 181.868C718.001 198.001 722.934 213.868 735.201 226.134C746.001 236.934 754.801 240.534 770.801 240.534C781.068 240.534 783.201 240.134 790.801 236.401C819.868 222.001 828.668 187.334 809.734 161.068C798.534 145.601 774.534 137.468 756.668 143.201ZM779.868 160.668C793.201 165.334 800.001 174.534 801.068 189.334C801.601 197.468 801.201 199.468 798.134 206.001C790.268 222.001 771.068 228.401 755.068 220.268C735.601 210.268 732.268 180.534 749.068 166.668C758.134 159.201 769.468 156.934 779.868 160.668Z" fill="#FFFDFD"/>
<path d="M650.4 143.6C648.4 144.134 648 145.734 648 152.134V160H659.2C665.333 160 671.333 160.4 672.533 160.8C674.4 161.467 674.667 166.267 674.667 200.134V238.667H683.333H692L692.267 199.6L692.667 160.667L705.333 160.534L718 160.267L718.4 152.134L718.8 144H687.467C670.267 144 655.467 143.734 654.4 143.467C653.467 143.2 651.6 143.2 650.4 143.6Z" fill="#FFFDFD"/>
<path d="M910.4 143.6L904 144.134V191.467V238.667H911.067L918 238.534L938 210C949.067 194.267 958.4 181.334 959.067 181.334C959.6 181.334 960 194.267 960 210V238.667H968.667H977.333V191.334V144H970.4H963.333L943.333 172.667C932.4 188.4 922.933 201.334 922.4 201.334C921.867 201.334 921.2 188.267 921.067 172.4C920.667 147.734 920.4 143.334 918.667 143.2C917.6 143.2 913.867 143.334 910.4 143.6Z" fill="#FFFDFD"/>
<path d="M997.334 190.934V238.667H1006H1014.67L1014.93 199.6L1015.33 160.667L1030 160.4C1038.13 160.134 1046 160.4 1047.73 160.667L1050.67 161.334V200V238.667H1059.33H1068V191.334V144L1041.73 143.867C1027.2 143.867 1011.33 143.734 1006.4 143.6L997.334 143.334V190.934Z" fill="#FFFDFD"/>
<path d="M380 192V240H388.667H397.333L397.6 200.933L398 162L415.067 161.6L432 161.2L432.133 182.933C432.267 194.933 432.4 212.667 432.533 222.267L432.667 240H441.733H450.667V192V144H415.333H380V192Z" fill="#FFFDFD"/>
<path d="M469.867 191.2L469.733 238.667H478.8H487.867L488.267 223.067L488.667 207.467L500.933 207.2C509.733 206.934 514.933 206.134 519.2 204.134C541.6 194.267 544.267 162.934 524 148.934L518 144.667L494 144.267L470 143.867L469.867 191.2ZM511.067 161.867C519.333 165.2 522.267 174.4 518 182.667C514.933 188.534 509.6 190.667 498 190.667H488V175.334V160H497.333C502.533 160 508.667 160.8 511.067 161.867Z" fill="#FFFDFD"/>
<path d="M821.334 152V159.867L834.401 160.267L847.334 160.667L847.734 199.6L848.001 238.667H856.667H865.334L865.601 199.6L866.001 160.667L879.067 160.267L892.001 159.867V152V144H856.667H821.334V152Z" fill="#FFFDFD"/>
</svg>
